<?xml version="1.0" encoding="utf-8" ?>
<svg baseProfile="full" height="32" version="1.1" width="32" xmlns="http://www.w3.org/2000/svg" xmlns:ev="http://www.w3.org/2001/xml-events" xmlns:xlink="http://www.w3.org/1999/xlink"> <defs>
    <filter id="drop-shadow" x="-50%" y="-50%" width="200%" height="200%">
      <feGaussianBlur in="SourceAlpha" stdDeviation="3" />
      <feOffset dx="2" dy="2" result="offsetblur" />
      <feFlood flood-color="rgba(0,0,0,0.5)" />
      <feComposite in2="offsetblur" operator="in" />
      <feMerge>
        <feMergeNode />
        <feMergeNode in="SourceGraphic" />
      </feMerge>
    </filter>
  </defs>




<rect fill="rgb(112,109,103)" height="1" opacity="1.0" width="1" x="12" y="3"  filter="url(#drop-shadow)" />

<rect fill="rgb(112,109,103)" height="1" opacity="1.0" width="1" x="13" y="3"  filter="url(#drop-shadow)" />
<rect fill="rgb(112,109,103)" height="1" opacity="1.0" width="1" x="14" y="3"  filter="url(#drop-shadow)" />
<rect fill="rgb(112,109,103)" height="1" opacity="1.0" width="1" x="15" y="3"  filter="url(#drop-shadow)" />
<rect fill="rgb(112,109,103)" height="1" opacity="1.0" width="1" x="16" y="3"  filter="url(#drop-shadow)" />
<rect fill="rgb(112,109,103)" height="1" opacity="1.0" width="1" x="17" y="3"  filter="url(#drop-shadow)" />
<rect fill="rgb(112,109,103)" height="1" opacity="1.0" width="1" x="18" y="3"  filter="url(#drop-shadow)" />
<rect fill="rgb(112,109,103)" height="1" opacity="1.0" width="1" x="19" y="3"  filter="url(#drop-shadow)" />
<rect fill="rgb(0,0,0)" height="1" opacity="0.00392156862745098" width="1" x="20" y="3"  filter="url(#drop-shadow)" />
<rect fill="rgb(112,109,103)" height="1" opacity="1.0" width="1" x="12" y="4"  filter="url(#drop-shadow)" />
<rect fill="rgb(112,109,103)" height="1" opacity="1.0" width="1" x="13" y="4"  filter="url(#drop-shadow)" />
<rect fill="rgb(112,109,103)" height="1" opacity="1.0" width="1" x="14" y="4"  filter="url(#drop-shadow)" />
<rect fill="rgb(112,109,103)" height="1" opacity="1.0" width="1" x="15" y="4"  filter="url(#drop-shadow)" />
<rect fill="rgb(112,109,103)" height="1" opacity="1.0" width="1" x="16" y="4"  filter="url(#drop-shadow)" />
<rect fill="rgb(112,109,103)" height="1" opacity="1.0" width="1" x="17" y="4"  filter="url(#drop-shadow)" />
<rect fill="rgb(112,109,103)" height="1" opacity="1.0" width="1" x="18" y="4"  filter="url(#drop-shadow)" />
<rect fill="rgb(112,109,103)" height="1" opacity="1.0" width="1" x="19" y="4"  filter="url(#drop-shadow)" />
<rect fill="rgb(0,0,0)" height="1" opacity="0.00392156862745098" width="1" x="20" y="4"  filter="url(#drop-shadow)" />
<rect fill="rgb(112,109,103)" height="1" opacity="1.0" width="1" x="10" y="5"  filter="url(#drop-shadow)" />
<rect fill="rgb(112,109,103)" height="1" opacity="1.0" width="1" x="11" y="5"  filter="url(#drop-shadow)" />
<rect fill="rgb(112,109,103)" height="1" opacity="1.0" width="1" x="12" y="5"  filter="url(#drop-shadow)" />
<rect fill="rgb(112,109,103)" height="1" opacity="1.0" width="1" x="13" y="5"  filter="url(#drop-shadow)" />
<rect fill="rgb(112,109,103)" height="1" opacity="1.0" width="1" x="14" y="5"  filter="url(#drop-shadow)" />
<rect fill="rgb(112,109,103)" height="1" opacity="1.0" width="1" x="15" y="5"  filter="url(#drop-shadow)" />
<rect fill="rgb(112,109,103)" height="1" opacity="1.0" width="1" x="16" y="5"  filter="url(#drop-shadow)" />
<rect fill="rgb(112,109,103)" height="1" opacity="1.0" width="1" x="17" y="5"  filter="url(#drop-shadow)" />
<rect fill="rgb(112,109,103)" height="1" opacity="1.0" width="1" x="18" y="5"  filter="url(#drop-shadow)" />
<rect fill="rgb(112,109,103)" height="1" opacity="1.0" width="1" x="19" y="5"  filter="url(#drop-shadow)" />
<rect fill="rgb(112,109,103)" height="1" opacity="1.0" width="1" x="20" y="5"  filter="url(#drop-shadow)" />
<rect fill="rgb(112,109,103)" height="1" opacity="1.0" width="1" x="21" y="5"  filter="url(#drop-shadow)" />
<rect fill="rgb(0,0,0)" height="1" opacity="0.00392156862745098" width="1" x="22" y="5"  filter="url(#drop-shadow)" />
<rect fill="rgb(112,109,103)" height="1" opacity="1.0" width="1" x="10" y="6"  filter="url(#drop-shadow)" />
<rect fill="rgb(112,109,103)" height="1" opacity="1.0" width="1" x="11" y="6"  filter="url(#drop-shadow)" />
<rect fill="rgb(112,109,103)" height="1" opacity="1.0" width="1" x="12" y="6"  filter="url(#drop-shadow)" />
<rect fill="rgb(112,109,103)" height="1" opacity="1.0" width="1" x="13" y="6"  filter="url(#drop-shadow)" />
<rect fill="rgb(112,109,103)" height="1" opacity="1.0" width="1" x="14" y="6"  filter="url(#drop-shadow)" />
<rect fill="rgb(112,109,103)" height="1" opacity="1.0" width="1" x="15" y="6"  filter="url(#drop-shadow)" />
<rect fill="rgb(112,109,103)" height="1" opacity="1.0" width="1" x="16" y="6"  filter="url(#drop-shadow)" />
<rect fill="rgb(112,109,103)" height="1" opacity="1.0" width="1" x="17" y="6"  filter="url(#drop-shadow)" />
<rect fill="rgb(112,109,103)" height="1" opacity="1.0" width="1" x="18" y="6"  filter="url(#drop-shadow)" />
<rect fill="rgb(112,109,103)" height="1" opacity="1.0" width="1" x="19" y="6"  filter="url(#drop-shadow)" />
<rect fill="rgb(112,109,103)" height="1" opacity="1.0" width="1" x="20" y="6"  filter="url(#drop-shadow)" />
<rect fill="rgb(112,109,103)" height="1" opacity="1.0" width="1" x="21" y="6"  filter="url(#drop-shadow)" />
<rect fill="rgb(0,0,0)" height="1" opacity="0.00392156862745098" width="1" x="22" y="6"  filter="url(#drop-shadow)" />
<rect fill="rgb(112,109,103)" height="1" opacity="1.0" width="1" x="10" y="7"  filter="url(#drop-shadow)" />
<rect fill="rgb(112,109,103)" height="1" opacity="1.0" width="1" x="11" y="7"  filter="url(#drop-shadow)" />
<rect fill="rgb(112,109,103)" height="1" opacity="1.0" width="1" x="12" y="7"  filter="url(#drop-shadow)" />
<rect fill="rgb(112,109,103)" height="1" opacity="1.0" width="1" x="13" y="7"  filter="url(#drop-shadow)" />
<rect fill="rgb(112,109,103)" height="1" opacity="1.0" width="1" x="14" y="7"  filter="url(#drop-shadow)" />
<rect fill="rgb(112,109,103)" height="1" opacity="1.0" width="1" x="15" y="7"  filter="url(#drop-shadow)" />
<rect fill="rgb(248,193,145)" height="1" opacity="1.0" width="1" x="16" y="7"  filter="url(#drop-shadow)" />
<rect fill="rgb(249,194,146)" height="1" opacity="1.0" width="1" x="17" y="7"  filter="url(#drop-shadow)" />
<rect fill="rgb(249,194,146)" height="1" opacity="1.0" width="1" x="18" y="7"  filter="url(#drop-shadow)" />
<rect fill="rgb(249,194,146)" height="1" opacity="1.0" width="1" x="19" y="7"  filter="url(#drop-shadow)" />
<rect fill="rgb(112,109,103)" height="1" opacity="1.0" width="1" x="20" y="7"  filter="url(#drop-shadow)" />
<rect fill="rgb(112,109,103)" height="1" opacity="1.0" width="1" x="21" y="7"  filter="url(#drop-shadow)" />
<rect fill="rgb(0,0,0)" height="1" opacity="0.00392156862745098" width="1" x="22" y="7"  filter="url(#drop-shadow)" />
<rect fill="rgb(112,109,103)" height="1" opacity="1.0" width="1" x="10" y="8"  filter="url(#drop-shadow)" />
<rect fill="rgb(112,109,103)" height="1" opacity="1.0" width="1" x="11" y="8"  filter="url(#drop-shadow)" />
<rect fill="rgb(112,109,103)" height="1" opacity="1.0" width="1" x="12" y="8"  filter="url(#drop-shadow)" />
<rect fill="rgb(112,109,103)" height="1" opacity="1.0" width="1" x="13" y="8"  filter="url(#drop-shadow)" />
<rect fill="rgb(112,109,103)" height="1" opacity="1.0" width="1" x="14" y="8"  filter="url(#drop-shadow)" />
<rect fill="rgb(112,109,103)" height="1" opacity="1.0" width="1" x="15" y="8"  filter="url(#drop-shadow)" />
<rect fill="rgb(248,193,145)" height="1" opacity="1.0" width="1" x="16" y="8"  filter="url(#drop-shadow)" />
<rect fill="rgb(249,194,146)" height="1" opacity="1.0" width="1" x="17" y="8"  filter="url(#drop-shadow)" />
<rect fill="rgb(249,194,146)" height="1" opacity="1.0" width="1" x="18" y="8"  filter="url(#drop-shadow)" />
<rect fill="rgb(249,194,146)" height="1" opacity="1.0" width="1" x="19" y="8"  filter="url(#drop-shadow)" />
<rect fill="rgb(112,109,103)" height="1" opacity="1.0" width="1" x="20" y="8"  filter="url(#drop-shadow)" />
<rect fill="rgb(112,109,103)" height="1" opacity="1.0" width="1" x="21" y="8"  filter="url(#drop-shadow)" />
<rect fill="rgb(0,0,0)" height="1" opacity="0.00392156862745098" width="1" x="22" y="8"  filter="url(#drop-shadow)" />
<rect fill="rgb(112,109,103)" height="1" opacity="1.0" width="1" x="8" y="9"  filter="url(#drop-shadow)" />
<rect fill="rgb(112,109,103)" height="1" opacity="1.0" width="1" x="9" y="9"  filter="url(#drop-shadow)" />
<rect fill="rgb(249,194,146)" height="1" opacity="1.0" width="1" x="10" y="9"  filter="url(#drop-shadow)" />
<rect fill="rgb(249,194,146)" height="1" opacity="1.0" width="1" x="11" y="9"  filter="url(#drop-shadow)" />
<rect fill="rgb(249,194,146)" height="1" opacity="1.0" width="1" x="12" y="9"  filter="url(#drop-shadow)" />
<rect fill="rgb(249,194,146)" height="1" opacity="1.0" width="1" x="13" y="9"  filter="url(#drop-shadow)" />
<rect fill="rgb(249,194,146)" height="1" opacity="1.0" width="1" x="14" y="9"  filter="url(#drop-shadow)" />
<rect fill="rgb(249,194,146)" height="1" opacity="1.0" width="1" x="15" y="9"  filter="url(#drop-shadow)" />
<rect fill="rgb(249,194,146)" height="1" opacity="1.0" width="1" x="16" y="9"  filter="url(#drop-shadow)" />
<rect fill="rgb(249,194,146)" height="1" opacity="1.0" width="1" x="17" y="9"  filter="url(#drop-shadow)" />
<rect fill="rgb(249,194,146)" height="1" opacity="1.0" width="1" x="18" y="9"  filter="url(#drop-shadow)" />
<rect fill="rgb(249,194,146)" height="1" opacity="1.0" width="1" x="19" y="9"  filter="url(#drop-shadow)" />
<rect fill="rgb(249,194,146)" height="1" opacity="1.0" width="1" x="20" y="9"  filter="url(#drop-shadow)" />
<rect fill="rgb(249,194,146)" height="1" opacity="1.0" width="1" x="21" y="9"  filter="url(#drop-shadow)" />
<rect fill="rgb(112,109,103)" height="1" opacity="1.0" width="1" x="22" y="9"  filter="url(#drop-shadow)" />
<rect fill="rgb(112,109,103)" height="1" opacity="1.0" width="1" x="23" y="9"  filter="url(#drop-shadow)" />
<rect fill="rgb(112,109,103)" height="1" opacity="1.0" width="1" x="8" y="10"  filter="url(#drop-shadow)" />
<rect fill="rgb(112,109,103)" height="1" opacity="1.0" width="1" x="9" y="10"  filter="url(#drop-shadow)" />
<rect fill="rgb(248,193,145)" height="1" opacity="1.0" width="1" x="10" y="10"  filter="url(#drop-shadow)" />
<rect fill="rgb(249,194,146)" height="1" opacity="1.0" width="1" x="11" y="10"  filter="url(#drop-shadow)" />
<rect fill="rgb(249,194,146)" height="1" opacity="1.0" width="1" x="12" y="10"  filter="url(#drop-shadow)" />
<rect fill="rgb(249,194,146)" height="1" opacity="1.0" width="1" x="13" y="10"  filter="url(#drop-shadow)" />
<rect fill="rgb(249,194,146)" height="1" opacity="1.0" width="1" x="14" y="10"  filter="url(#drop-shadow)" />
<rect fill="rgb(249,194,146)" height="1" opacity="1.0" width="1" x="15" y="10"  filter="url(#drop-shadow)" />
<rect fill="rgb(249,194,146)" height="1" opacity="1.0" width="1" x="16" y="10"  filter="url(#drop-shadow)" />
<rect fill="rgb(249,194,146)" height="1" opacity="1.0" width="1" x="17" y="10"  filter="url(#drop-shadow)" />
<rect fill="rgb(249,194,146)" height="1" opacity="1.0" width="1" x="18" y="10"  filter="url(#drop-shadow)" />
<rect fill="rgb(249,194,146)" height="1" opacity="1.0" width="1" x="19" y="10"  filter="url(#drop-shadow)" />
<rect fill="rgb(249,194,146)" height="1" opacity="1.0" width="1" x="20" y="10"  filter="url(#drop-shadow)" />
<rect fill="rgb(249,194,146)" height="1" opacity="1.0" width="1" x="21" y="10"  filter="url(#drop-shadow)" />
<rect fill="rgb(112,109,103)" height="1" opacity="1.0" width="1" x="22" y="10"  filter="url(#drop-shadow)" />
<rect fill="rgb(112,109,103)" height="1" opacity="1.0" width="1" x="23" y="10"  filter="url(#drop-shadow)" />
<rect fill="rgb(0,0,0)" height="1" opacity="0.00392156862745098" width="1" x="24" y="10"  filter="url(#drop-shadow)" />
<rect fill="rgb(112,109,103)" height="1" opacity="1.0" width="1" x="8" y="11"  filter="url(#drop-shadow)" />
<rect fill="rgb(112,109,103)" height="1" opacity="1.0" width="1" x="9" y="11"  filter="url(#drop-shadow)" />
<rect fill="rgb(248,193,145)" height="1" opacity="1.0" width="1" x="10" y="11"  filter="url(#drop-shadow)" />
<rect fill="rgb(249,194,146)" height="1" opacity="1.0" width="1" x="11" y="11"  filter="url(#drop-shadow)" />
<rect fill="rgb(249,194,146)" height="1" opacity="1.0" width="1" x="12" y="11"  filter="url(#drop-shadow)" />
<rect fill="rgb(249,194,146)" height="1" opacity="1.0" width="1" x="13" y="11"  filter="url(#drop-shadow)" />
<rect fill="rgb(249,194,146)" height="1" opacity="1.0" width="1" x="14" y="11"  filter="url(#drop-shadow)" />
<rect fill="rgb(249,194,146)" height="1" opacity="1.0" width="1" x="15" y="11"  filter="url(#drop-shadow)" />
<rect fill="rgb(249,194,146)" height="1" opacity="1.0" width="1" x="16" y="11"  filter="url(#drop-shadow)" />
<rect fill="rgb(249,194,146)" height="1" opacity="1.0" width="1" x="17" y="11"  filter="url(#drop-shadow)" />
<rect fill="rgb(249,194,146)" height="1" opacity="1.0" width="1" x="18" y="11"  filter="url(#drop-shadow)" />
<rect fill="rgb(249,194,146)" height="1" opacity="1.0" width="1" x="19" y="11"  filter="url(#drop-shadow)" />
<rect fill="rgb(249,194,146)" height="1" opacity="1.0" width="1" x="20" y="11"  filter="url(#drop-shadow)" />
<rect fill="rgb(249,194,146)" height="1" opacity="1.0" width="1" x="21" y="11"  filter="url(#drop-shadow)" />
<rect fill="rgb(112,109,103)" height="1" opacity="1.0" width="1" x="22" y="11"  filter="url(#drop-shadow)" />
<rect fill="rgb(112,109,103)" height="1" opacity="1.0" width="1" x="23" y="11"  filter="url(#drop-shadow)" />
<rect fill="rgb(0,0,0)" height="1" opacity="0.00392156862745098" width="1" x="24" y="11"  filter="url(#drop-shadow)" />
<rect fill="rgb(112,109,103)" height="1" opacity="1.0" width="1" x="8" y="12"  filter="url(#drop-shadow)" />
<rect fill="rgb(112,109,103)" height="1" opacity="1.0" width="1" x="9" y="12"  filter="url(#drop-shadow)" />
<rect fill="rgb(248,193,145)" height="1" opacity="1.0" width="1" x="10" y="12"  filter="url(#drop-shadow)" />
<rect fill="rgb(249,194,146)" height="1" opacity="1.0" width="1" x="11" y="12"  filter="url(#drop-shadow)" />
<rect fill="rgb(249,194,146)" height="1" opacity="1.0" width="1" x="12" y="12"  filter="url(#drop-shadow)" />
<rect fill="rgb(249,194,146)" height="1" opacity="1.0" width="1" x="13" y="12"  filter="url(#drop-shadow)" />
<rect fill="rgb(249,194,146)" height="1" opacity="1.0" width="1" x="14" y="12"  filter="url(#drop-shadow)" />
<rect fill="rgb(249,194,146)" height="1" opacity="1.0" width="1" x="15" y="12"  filter="url(#drop-shadow)" />
<rect fill="rgb(249,194,146)" height="1" opacity="1.0" width="1" x="16" y="12"  filter="url(#drop-shadow)" />
<rect fill="rgb(249,194,146)" height="1" opacity="1.0" width="1" x="17" y="12"  filter="url(#drop-shadow)" />
<rect fill="rgb(249,194,146)" height="1" opacity="1.0" width="1" x="18" y="12"  filter="url(#drop-shadow)" />
<rect fill="rgb(249,194,146)" height="1" opacity="1.0" width="1" x="19" y="12"  filter="url(#drop-shadow)" />
<rect fill="rgb(249,194,146)" height="1" opacity="1.0" width="1" x="20" y="12"  filter="url(#drop-shadow)" />
<rect fill="rgb(249,194,146)" height="1" opacity="1.0" width="1" x="21" y="12"  filter="url(#drop-shadow)" />
<rect fill="rgb(112,109,103)" height="1" opacity="1.0" width="1" x="22" y="12"  filter="url(#drop-shadow)" />
<rect fill="rgb(112,109,103)" height="1" opacity="1.0" width="1" x="23" y="12"  filter="url(#drop-shadow)" />
<rect fill="rgb(0,0,0)" height="1" opacity="0.00392156862745098" width="1" x="24" y="12"  filter="url(#drop-shadow)" />
<rect fill="rgb(247,192,144)" height="1" opacity="0.996078431372549" width="1" x="8" y="13"  filter="url(#drop-shadow)" />
<rect fill="rgb(248,193,145)" height="1" opacity="1.0" width="1" x="9" y="13"  filter="url(#drop-shadow)" />
<rect fill="rgb(249,194,146)" height="1" opacity="1.0" width="1" x="10" y="13"  filter="url(#drop-shadow)" />
<rect fill="rgb(249,194,146)" height="1" opacity="1.0" width="1" x="11" y="13"  filter="url(#drop-shadow)" />
<rect fill="rgb(112,109,103)" height="1" opacity="1.0" width="1" x="12" y="13"  filter="url(#drop-shadow)" />
<rect fill="rgb(112,109,103)" height="1" opacity="1.0" width="1" x="13" y="13"  filter="url(#drop-shadow)" />
<rect fill="rgb(249,194,146)" height="1" opacity="1.0" width="1" x="14" y="13"  filter="url(#drop-shadow)" />
<rect fill="rgb(249,194,146)" height="1" opacity="1.0" width="1" x="15" y="13"  filter="url(#drop-shadow)" />
<rect fill="rgb(249,194,146)" height="1" opacity="1.0" width="1" x="16" y="13"  filter="url(#drop-shadow)" />
<rect fill="rgb(249,194,146)" height="1" opacity="1.0" width="1" x="17" y="13"  filter="url(#drop-shadow)" />
<rect fill="rgb(112,109,103)" height="1" opacity="1.0" width="1" x="18" y="13"  filter="url(#drop-shadow)" />
<rect fill="rgb(112,109,103)" height="1" opacity="1.0" width="1" x="19" y="13"  filter="url(#drop-shadow)" />
<rect fill="rgb(249,194,146)" height="1" opacity="1.0" width="1" x="20" y="13"  filter="url(#drop-shadow)" />
<rect fill="rgb(249,194,146)" height="1" opacity="1.0" width="1" x="21" y="13"  filter="url(#drop-shadow)" />
<rect fill="rgb(248,193,145)" height="1" opacity="1.0" width="1" x="22" y="13"  filter="url(#drop-shadow)" />
<rect fill="rgb(248,193,145)" height="1" opacity="1.0" width="1" x="23" y="13"  filter="url(#drop-shadow)" />
<rect fill="rgb(255,255,255)" height="1" opacity="0.00392156862745098" width="1" x="24" y="13"  filter="url(#drop-shadow)" />
<rect fill="rgb(248,193,145)" height="1" opacity="0.996078431372549" width="1" x="8" y="14"  filter="url(#drop-shadow)" />
<rect fill="rgb(249,194,146)" height="1" opacity="1.0" width="1" x="9" y="14"  filter="url(#drop-shadow)" />
<rect fill="rgb(249,194,146)" height="1" opacity="1.0" width="1" x="10" y="14"  filter="url(#drop-shadow)" />
<rect fill="rgb(249,194,146)" height="1" opacity="1.0" width="1" x="11" y="14"  filter="url(#drop-shadow)" />
<rect fill="rgb(112,109,103)" height="1" opacity="1.0" width="1" x="12" y="14"  filter="url(#drop-shadow)" />
<rect fill="rgb(112,109,103)" height="1" opacity="1.0" width="1" x="13" y="14"  filter="url(#drop-shadow)" />
<rect fill="rgb(248,193,145)" height="1" opacity="1.0" width="1" x="14" y="14"  filter="url(#drop-shadow)" />
<rect fill="rgb(249,194,146)" height="1" opacity="1.0" width="1" x="15" y="14"  filter="url(#drop-shadow)" />
<rect fill="rgb(249,194,146)" height="1" opacity="1.0" width="1" x="16" y="14"  filter="url(#drop-shadow)" />
<rect fill="rgb(249,194,146)" height="1" opacity="1.0" width="1" x="17" y="14"  filter="url(#drop-shadow)" />
<rect fill="rgb(112,109,103)" height="1" opacity="1.0" width="1" x="18" y="14"  filter="url(#drop-shadow)" />
<rect fill="rgb(112,109,103)" height="1" opacity="1.0" width="1" x="19" y="14"  filter="url(#drop-shadow)" />
<rect fill="rgb(248,193,145)" height="1" opacity="1.0" width="1" x="20" y="14"  filter="url(#drop-shadow)" />
<rect fill="rgb(249,194,146)" height="1" opacity="1.0" width="1" x="21" y="14"  filter="url(#drop-shadow)" />
<rect fill="rgb(249,194,146)" height="1" opacity="1.0" width="1" x="22" y="14"  filter="url(#drop-shadow)" />
<rect fill="rgb(249,194,146)" height="1" opacity="1.0" width="1" x="23" y="14"  filter="url(#drop-shadow)" />
<rect fill="rgb(255,255,255)" height="1" opacity="0.00392156862745098" width="1" x="24" y="14"  filter="url(#drop-shadow)" />
<rect fill="rgb(248,193,145)" height="1" opacity="0.996078431372549" width="1" x="10" y="15"  filter="url(#drop-shadow)" />
<rect fill="rgb(249,194,146)" height="1" opacity="1.0" width="1" x="11" y="15"  filter="url(#drop-shadow)" />
<rect fill="rgb(248,193,145)" height="1" opacity="1.0" width="1" x="12" y="15"  filter="url(#drop-shadow)" />
<rect fill="rgb(248,193,145)" height="1" opacity="1.0" width="1" x="13" y="15"  filter="url(#drop-shadow)" />
<rect fill="rgb(249,194,146)" height="1" opacity="1.0" width="1" x="14" y="15"  filter="url(#drop-shadow)" />
<rect fill="rgb(249,194,146)" height="1" opacity="1.0" width="1" x="15" y="15"  filter="url(#drop-shadow)" />
<rect fill="rgb(249,194,146)" height="1" opacity="1.0" width="1" x="16" y="15"  filter="url(#drop-shadow)" />
<rect fill="rgb(249,194,146)" height="1" opacity="1.0" width="1" x="17" y="15"  filter="url(#drop-shadow)" />
<rect fill="rgb(248,193,145)" height="1" opacity="1.0" width="1" x="18" y="15"  filter="url(#drop-shadow)" />
<rect fill="rgb(248,193,145)" height="1" opacity="1.0" width="1" x="19" y="15"  filter="url(#drop-shadow)" />
<rect fill="rgb(249,194,146)" height="1" opacity="1.0" width="1" x="20" y="15"  filter="url(#drop-shadow)" />
<rect fill="rgb(249,194,146)" height="1" opacity="1.0" width="1" x="21" y="15"  filter="url(#drop-shadow)" />
<rect fill="rgb(255,255,255)" height="1" opacity="0.00392156862745098" width="1" x="22" y="15"  filter="url(#drop-shadow)" />
<rect fill="rgb(248,193,145)" height="1" opacity="0.996078431372549" width="1" x="10" y="16"  filter="url(#drop-shadow)" />
<rect fill="rgb(249,194,146)" height="1" opacity="1.0" width="1" x="11" y="16"  filter="url(#drop-shadow)" />
<rect fill="rgb(249,194,146)" height="1" opacity="1.0" width="1" x="12" y="16"  filter="url(#drop-shadow)" />
<rect fill="rgb(249,194,146)" height="1" opacity="1.0" width="1" x="13" y="16"  filter="url(#drop-shadow)" />
<rect fill="rgb(249,194,146)" height="1" opacity="1.0" width="1" x="14" y="16"  filter="url(#drop-shadow)" />
<rect fill="rgb(249,194,146)" height="1" opacity="1.0" width="1" x="15" y="16"  filter="url(#drop-shadow)" />
<rect fill="rgb(249,194,146)" height="1" opacity="1.0" width="1" x="16" y="16"  filter="url(#drop-shadow)" />
<rect fill="rgb(249,194,146)" height="1" opacity="1.0" width="1" x="17" y="16"  filter="url(#drop-shadow)" />
<rect fill="rgb(249,194,146)" height="1" opacity="1.0" width="1" x="18" y="16"  filter="url(#drop-shadow)" />
<rect fill="rgb(249,194,146)" height="1" opacity="1.0" width="1" x="19" y="16"  filter="url(#drop-shadow)" />
<rect fill="rgb(249,194,146)" height="1" opacity="1.0" width="1" x="20" y="16"  filter="url(#drop-shadow)" />
<rect fill="rgb(249,194,146)" height="1" opacity="1.0" width="1" x="21" y="16"  filter="url(#drop-shadow)" />
<rect fill="rgb(255,255,255)" height="1" opacity="0.00392156862745098" width="1" x="22" y="16"  filter="url(#drop-shadow)" />
<rect fill="rgb(248,193,145)" height="1" opacity="0.996078431372549" width="1" x="10" y="17"  filter="url(#drop-shadow)" />
<rect fill="rgb(249,194,146)" height="1" opacity="1.0" width="1" x="11" y="17"  filter="url(#drop-shadow)" />
<rect fill="rgb(249,194,146)" height="1" opacity="1.0" width="1" x="12" y="17"  filter="url(#drop-shadow)" />
<rect fill="rgb(249,194,146)" height="1" opacity="1.0" width="1" x="13" y="17"  filter="url(#drop-shadow)" />
<rect fill="rgb(249,194,146)" height="1" opacity="1.0" width="1" x="14" y="17"  filter="url(#drop-shadow)" />
<rect fill="rgb(249,194,146)" height="1" opacity="1.0" width="1" x="15" y="17"  filter="url(#drop-shadow)" />
<rect fill="rgb(249,194,146)" height="1" opacity="1.0" width="1" x="16" y="17"  filter="url(#drop-shadow)" />
<rect fill="rgb(249,194,146)" height="1" opacity="1.0" width="1" x="17" y="17"  filter="url(#drop-shadow)" />
<rect fill="rgb(249,194,146)" height="1" opacity="1.0" width="1" x="18" y="17"  filter="url(#drop-shadow)" />
<rect fill="rgb(249,194,146)" height="1" opacity="1.0" width="1" x="19" y="17"  filter="url(#drop-shadow)" />
<rect fill="rgb(249,194,146)" height="1" opacity="1.0" width="1" x="20" y="17"  filter="url(#drop-shadow)" />
<rect fill="rgb(249,194,146)" height="1" opacity="1.0" width="1" x="21" y="17"  filter="url(#drop-shadow)" />
<rect fill="rgb(255,255,255)" height="1" opacity="0.00392156862745098" width="1" x="22" y="17"  filter="url(#drop-shadow)" />
<rect fill="rgb(248,193,145)" height="1" opacity="0.996078431372549" width="1" x="10" y="18"  filter="url(#drop-shadow)" />
<rect fill="rgb(249,194,146)" height="1" opacity="1.0" width="1" x="11" y="18"  filter="url(#drop-shadow)" />
<rect fill="rgb(249,194,146)" height="1" opacity="1.0" width="1" x="12" y="18"  filter="url(#drop-shadow)" />
<rect fill="rgb(249,194,146)" height="1" opacity="1.0" width="1" x="13" y="18"  filter="url(#drop-shadow)" />
<rect fill="rgb(249,194,146)" height="1" opacity="1.0" width="1" x="14" y="18"  filter="url(#drop-shadow)" />
<rect fill="rgb(249,194,146)" height="1" opacity="1.0" width="1" x="15" y="18"  filter="url(#drop-shadow)" />
<rect fill="rgb(249,194,146)" height="1" opacity="1.0" width="1" x="16" y="18"  filter="url(#drop-shadow)" />
<rect fill="rgb(249,194,146)" height="1" opacity="1.0" width="1" x="17" y="18"  filter="url(#drop-shadow)" />
<rect fill="rgb(249,194,146)" height="1" opacity="1.0" width="1" x="18" y="18"  filter="url(#drop-shadow)" />
<rect fill="rgb(249,194,146)" height="1" opacity="1.0" width="1" x="19" y="18"  filter="url(#drop-shadow)" />
<rect fill="rgb(249,194,146)" height="1" opacity="1.0" width="1" x="20" y="18"  filter="url(#drop-shadow)" />
<rect fill="rgb(249,194,146)" height="1" opacity="1.0" width="1" x="21" y="18"  filter="url(#drop-shadow)" />
<rect fill="rgb(255,255,255)" height="1" opacity="0.00392156862745098" width="1" x="22" y="18"  filter="url(#drop-shadow)" />
<rect fill="rgb(248,193,145)" height="1" opacity="0.996078431372549" width="1" x="12" y="19"  filter="url(#drop-shadow)" />
<rect fill="rgb(249,194,146)" height="1" opacity="1.0" width="1" x="13" y="19"  filter="url(#drop-shadow)" />
<rect fill="rgb(249,194,146)" height="1" opacity="1.0" width="1" x="14" y="19"  filter="url(#drop-shadow)" />
<rect fill="rgb(249,194,146)" height="1" opacity="1.0" width="1" x="15" y="19"  filter="url(#drop-shadow)" />
<rect fill="rgb(249,194,146)" height="1" opacity="1.0" width="1" x="16" y="19"  filter="url(#drop-shadow)" />
<rect fill="rgb(249,194,146)" height="1" opacity="1.0" width="1" x="17" y="19"  filter="url(#drop-shadow)" />
<rect fill="rgb(249,194,146)" height="1" opacity="1.0" width="1" x="18" y="19"  filter="url(#drop-shadow)" />
<rect fill="rgb(249,194,146)" height="1" opacity="1.0" width="1" x="19" y="19"  filter="url(#drop-shadow)" />
<rect fill="rgb(255,255,255)" height="1" opacity="0.00392156862745098" width="1" x="20" y="19"  filter="url(#drop-shadow)" />
<rect fill="rgb(248,193,145)" height="1" opacity="0.996078431372549" width="1" x="12" y="20"  filter="url(#drop-shadow)" />
<rect fill="rgb(249,194,146)" height="1" opacity="1.0" width="1" x="13" y="20"  filter="url(#drop-shadow)" />
<rect fill="rgb(249,194,146)" height="1" opacity="1.0" width="1" x="14" y="20"  filter="url(#drop-shadow)" />
<rect fill="rgb(249,194,146)" height="1" opacity="1.0" width="1" x="15" y="20"  filter="url(#drop-shadow)" />
<rect fill="rgb(249,194,146)" height="1" opacity="1.0" width="1" x="16" y="20"  filter="url(#drop-shadow)" />
<rect fill="rgb(249,194,146)" height="1" opacity="1.0" width="1" x="17" y="20"  filter="url(#drop-shadow)" />
<rect fill="rgb(249,194,146)" height="1" opacity="1.0" width="1" x="18" y="20"  filter="url(#drop-shadow)" />
<rect fill="rgb(249,194,146)" height="1" opacity="1.0" width="1" x="19" y="20"  filter="url(#drop-shadow)" />
<rect fill="rgb(255,255,255)" height="1" opacity="0.00392156862745098" width="1" x="20" y="20"  filter="url(#drop-shadow)" />
<rect fill="rgb(38,101,159)" height="1" opacity="1.0" width="1" x="10" y="21"  filter="url(#drop-shadow)" />
<rect fill="rgb(38,101,159)" height="1" opacity="1.0" width="1" x="11" y="21"  filter="url(#drop-shadow)" />
<rect fill="rgb(241,143,6)" height="1" opacity="1.0" width="1" x="12" y="21"  filter="url(#drop-shadow)" />
<rect fill="rgb(241,143,6)" height="1" opacity="1.0" width="1" x="13" y="21"  filter="url(#drop-shadow)" />
<rect fill="rgb(241,143,6)" height="1" opacity="1.0" width="1" x="14" y="21"  filter="url(#drop-shadow)" />
<rect fill="rgb(241,143,6)" height="1" opacity="1.0" width="1" x="15" y="21"  filter="url(#drop-shadow)" />
<rect fill="rgb(241,143,6)" height="1" opacity="1.0" width="1" x="16" y="21"  filter="url(#drop-shadow)" />
<rect fill="rgb(241,143,6)" height="1" opacity="1.0" width="1" x="17" y="21"  filter="url(#drop-shadow)" />
<rect fill="rgb(241,143,6)" height="1" opacity="1.0" width="1" x="18" y="21"  filter="url(#drop-shadow)" />
<rect fill="rgb(241,143,6)" height="1" opacity="1.0" width="1" x="19" y="21"  filter="url(#drop-shadow)" />
<rect fill="rgb(38,101,159)" height="1" opacity="1.0" width="1" x="20" y="21"  filter="url(#drop-shadow)" />
<rect fill="rgb(38,101,159)" height="1" opacity="1.0" width="1" x="21" y="21"  filter="url(#drop-shadow)" />
<rect fill="rgb(38,101,159)" height="1" opacity="1.0" width="1" x="10" y="22"  filter="url(#drop-shadow)" />
<rect fill="rgb(38,101,159)" height="1" opacity="1.0" width="1" x="11" y="22"  filter="url(#drop-shadow)" />
<rect fill="rgb(240,142,7)" height="1" opacity="1.0" width="1" x="12" y="22"  filter="url(#drop-shadow)" />
<rect fill="rgb(241,143,6)" height="1" opacity="1.0" width="1" x="13" y="22"  filter="url(#drop-shadow)" />
<rect fill="rgb(241,143,6)" height="1" opacity="1.0" width="1" x="14" y="22"  filter="url(#drop-shadow)" />
<rect fill="rgb(241,143,6)" height="1" opacity="1.0" width="1" x="15" y="22"  filter="url(#drop-shadow)" />
<rect fill="rgb(241,143,6)" height="1" opacity="1.0" width="1" x="16" y="22"  filter="url(#drop-shadow)" />
<rect fill="rgb(241,143,6)" height="1" opacity="1.0" width="1" x="17" y="22"  filter="url(#drop-shadow)" />
<rect fill="rgb(241,143,6)" height="1" opacity="1.0" width="1" x="18" y="22"  filter="url(#drop-shadow)" />
<rect fill="rgb(241,143,6)" height="1" opacity="1.0" width="1" x="19" y="22"  filter="url(#drop-shadow)" />
<rect fill="rgb(38,101,159)" height="1" opacity="1.0" width="1" x="20" y="22"  filter="url(#drop-shadow)" />
<rect fill="rgb(38,101,159)" height="1" opacity="1.0" width="1" x="21" y="22"  filter="url(#drop-shadow)" />
<rect fill="rgb(0,0,255)" height="1" opacity="0.00392156862745098" width="1" x="22" y="22"  filter="url(#drop-shadow)" />
<rect fill="rgb(88,154,211)" height="1" opacity="0.996078431372549" width="1" x="8" y="23"  filter="url(#drop-shadow)" />
<rect fill="rgb(88,155,212)" height="1" opacity="1.0" width="1" x="9" y="23"  filter="url(#drop-shadow)" />
<rect fill="rgb(88,154,212)" height="1" opacity="1.0" width="1" x="10" y="23"  filter="url(#drop-shadow)" />
<rect fill="rgb(88,154,212)" height="1" opacity="1.0" width="1" x="11" y="23"  filter="url(#drop-shadow)" />
<rect fill="rgb(38,101,159)" height="1" opacity="1.0" width="1" x="12" y="23"  filter="url(#drop-shadow)" />
<rect fill="rgb(38,101,159)" height="1" opacity="1.0" width="1" x="13" y="23"  filter="url(#drop-shadow)" />
<rect fill="rgb(240,142,7)" height="1" opacity="1.0" width="1" x="14" y="23"  filter="url(#drop-shadow)" />
<rect fill="rgb(241,143,6)" height="1" opacity="1.0" width="1" x="15" y="23"  filter="url(#drop-shadow)" />
<rect fill="rgb(241,143,6)" height="1" opacity="1.0" width="1" x="16" y="23"  filter="url(#drop-shadow)" />
<rect fill="rgb(241,143,6)" height="1" opacity="1.0" width="1" x="17" y="23"  filter="url(#drop-shadow)" />
<rect fill="rgb(38,101,159)" height="1" opacity="1.0" width="1" x="18" y="23"  filter="url(#drop-shadow)" />
<rect fill="rgb(38,101,159)" height="1" opacity="1.0" width="1" x="19" y="23"  filter="url(#drop-shadow)" />
<rect fill="rgb(88,154,212)" height="1" opacity="1.0" width="1" x="20" y="23"  filter="url(#drop-shadow)" />
<rect fill="rgb(88,154,212)" height="1" opacity="1.0" width="1" x="21" y="23"  filter="url(#drop-shadow)" />
<rect fill="rgb(88,155,212)" height="1" opacity="1.0" width="1" x="22" y="23"  filter="url(#drop-shadow)" />
<rect fill="rgb(88,155,212)" height="1" opacity="1.0" width="1" x="23" y="23"  filter="url(#drop-shadow)" />
<rect fill="rgb(0,255,255)" height="1" opacity="0.00392156862745098" width="1" x="24" y="23"  filter="url(#drop-shadow)" />
<rect fill="rgb(88,154,211)" height="1" opacity="0.996078431372549" width="1" x="8" y="24"  filter="url(#drop-shadow)" />
<rect fill="rgb(88,155,212)" height="1" opacity="1.0" width="1" x="9" y="24"  filter="url(#drop-shadow)" />
<rect fill="rgb(88,155,212)" height="1" opacity="1.0" width="1" x="10" y="24"  filter="url(#drop-shadow)" />
<rect fill="rgb(88,155,212)" height="1" opacity="1.0" width="1" x="11" y="24"  filter="url(#drop-shadow)" />
<rect fill="rgb(38,101,159)" height="1" opacity="1.0" width="1" x="12" y="24"  filter="url(#drop-shadow)" />
<rect fill="rgb(38,101,159)" height="1" opacity="1.0" width="1" x="13" y="24"  filter="url(#drop-shadow)" />
<rect fill="rgb(240,142,7)" height="1" opacity="1.0" width="1" x="14" y="24"  filter="url(#drop-shadow)" />
<rect fill="rgb(241,143,6)" height="1" opacity="1.0" width="1" x="15" y="24"  filter="url(#drop-shadow)" />
<rect fill="rgb(241,143,6)" height="1" opacity="1.0" width="1" x="16" y="24"  filter="url(#drop-shadow)" />
<rect fill="rgb(241,143,6)" height="1" opacity="1.0" width="1" x="17" y="24"  filter="url(#drop-shadow)" />
<rect fill="rgb(38,101,159)" height="1" opacity="1.0" width="1" x="18" y="24"  filter="url(#drop-shadow)" />
<rect fill="rgb(38,101,159)" height="1" opacity="1.0" width="1" x="19" y="24"  filter="url(#drop-shadow)" />
<rect fill="rgb(88,154,212)" height="1" opacity="1.0" width="1" x="20" y="24"  filter="url(#drop-shadow)" />
<rect fill="rgb(88,155,212)" height="1" opacity="1.0" width="1" x="21" y="24"  filter="url(#drop-shadow)" />
<rect fill="rgb(88,155,212)" height="1" opacity="1.0" width="1" x="22" y="24"  filter="url(#drop-shadow)" />
<rect fill="rgb(88,155,212)" height="1" opacity="1.0" width="1" x="23" y="24"  filter="url(#drop-shadow)" />
<rect fill="rgb(0,255,255)" height="1" opacity="0.00392156862745098" width="1" x="24" y="24"  filter="url(#drop-shadow)" />
<rect fill="rgb(88,154,211)" height="1" opacity="0.996078431372549" width="1" x="6" y="25"  filter="url(#drop-shadow)" />
<rect fill="rgb(88,155,212)" height="1" opacity="1.0" width="1" x="7" y="25"  filter="url(#drop-shadow)" />
<rect fill="rgb(88,155,212)" height="1" opacity="1.0" width="1" x="8" y="25"  filter="url(#drop-shadow)" />
<rect fill="rgb(88,155,212)" height="1" opacity="1.0" width="1" x="9" y="25"  filter="url(#drop-shadow)" />
<rect fill="rgb(88,155,212)" height="1" opacity="1.0" width="1" x="10" y="25"  filter="url(#drop-shadow)" />
<rect fill="rgb(88,155,212)" height="1" opacity="1.0" width="1" x="11" y="25"  filter="url(#drop-shadow)" />
<rect fill="rgb(88,155,212)" height="1" opacity="1.0" width="1" x="12" y="25"  filter="url(#drop-shadow)" />
<rect fill="rgb(88,154,212)" height="1" opacity="1.0" width="1" x="13" y="25"  filter="url(#drop-shadow)" />
<rect fill="rgb(38,101,159)" height="1" opacity="1.0" width="1" x="14" y="25"  filter="url(#drop-shadow)" />
<rect fill="rgb(38,101,159)" height="1" opacity="1.0" width="1" x="15" y="25"  filter="url(#drop-shadow)" />
<rect fill="rgb(38,101,159)" height="1" opacity="1.0" width="1" x="16" y="25"  filter="url(#drop-shadow)" />
<rect fill="rgb(38,101,159)" height="1" opacity="1.0" width="1" x="17" y="25"  filter="url(#drop-shadow)" />
<rect fill="rgb(88,153,212)" height="1" opacity="1.0" width="1" x="18" y="25"  filter="url(#drop-shadow)" />
<rect fill="rgb(88,154,212)" height="1" opacity="1.0" width="1" x="19" y="25"  filter="url(#drop-shadow)" />
<rect fill="rgb(88,155,212)" height="1" opacity="1.0" width="1" x="20" y="25"  filter="url(#drop-shadow)" />
<rect fill="rgb(88,155,212)" height="1" opacity="1.0" width="1" x="21" y="25"  filter="url(#drop-shadow)" />
<rect fill="rgb(88,155,212)" height="1" opacity="1.0" width="1" x="22" y="25"  filter="url(#drop-shadow)" />
<rect fill="rgb(88,155,212)" height="1" opacity="1.0" width="1" x="23" y="25"  filter="url(#drop-shadow)" />
<rect fill="rgb(88,155,212)" height="1" opacity="1.0" width="1" x="24" y="25"  filter="url(#drop-shadow)" />
<rect fill="rgb(88,155,212)" height="1" opacity="1.0" width="1" x="25" y="25"  filter="url(#drop-shadow)" />
<rect fill="rgb(0,255,255)" height="1" opacity="0.00392156862745098" width="1" x="26" y="25"  filter="url(#drop-shadow)" />
<rect fill="rgb(88,154,211)" height="1" opacity="0.996078431372549" width="1" x="6" y="26"  filter="url(#drop-shadow)" />
<rect fill="rgb(88,155,212)" height="1" opacity="1.0" width="1" x="7" y="26"  filter="url(#drop-shadow)" />
<rect fill="rgb(88,155,212)" height="1" opacity="1.0" width="1" x="8" y="26"  filter="url(#drop-shadow)" />
<rect fill="rgb(88,155,212)" height="1" opacity="1.0" width="1" x="9" y="26"  filter="url(#drop-shadow)" />
<rect fill="rgb(88,155,212)" height="1" opacity="1.0" width="1" x="10" y="26"  filter="url(#drop-shadow)" />
<rect fill="rgb(88,155,212)" height="1" opacity="1.0" width="1" x="11" y="26"  filter="url(#drop-shadow)" />
<rect fill="rgb(88,155,212)" height="1" opacity="1.0" width="1" x="12" y="26"  filter="url(#drop-shadow)" />
<rect fill="rgb(88,155,212)" height="1" opacity="1.0" width="1" x="13" y="26"  filter="url(#drop-shadow)" />
<rect fill="rgb(38,101,159)" height="1" opacity="1.0" width="1" x="14" y="26"  filter="url(#drop-shadow)" />
<rect fill="rgb(38,101,159)" height="1" opacity="1.0" width="1" x="15" y="26"  filter="url(#drop-shadow)" />
<rect fill="rgb(38,101,159)" height="1" opacity="1.0" width="1" x="16" y="26"  filter="url(#drop-shadow)" />
<rect fill="rgb(38,101,159)" height="1" opacity="1.0" width="1" x="17" y="26"  filter="url(#drop-shadow)" />
<rect fill="rgb(88,154,212)" height="1" opacity="1.0" width="1" x="18" y="26"  filter="url(#drop-shadow)" />
<rect fill="rgb(88,155,212)" height="1" opacity="1.0" width="1" x="19" y="26"  filter="url(#drop-shadow)" />
<rect fill="rgb(88,155,212)" height="1" opacity="1.0" width="1" x="20" y="26"  filter="url(#drop-shadow)" />
<rect fill="rgb(88,155,212)" height="1" opacity="1.0" width="1" x="21" y="26"  filter="url(#drop-shadow)" />
<rect fill="rgb(88,155,212)" height="1" opacity="1.0" width="1" x="22" y="26"  filter="url(#drop-shadow)" />
<rect fill="rgb(88,155,212)" height="1" opacity="1.0" width="1" x="23" y="26"  filter="url(#drop-shadow)" />
<rect fill="rgb(88,155,212)" height="1" opacity="1.0" width="1" x="24" y="26"  filter="url(#drop-shadow)" />
<rect fill="rgb(88,155,212)" height="1" opacity="1.0" width="1" x="25" y="26"  filter="url(#drop-shadow)" />
<rect fill="rgb(0,255,255)" height="1" opacity="0.00392156862745098" width="1" x="26" y="26"  filter="url(#drop-shadow)" />
<rect fill="rgb(88,154,211)" height="1" opacity="0.996078431372549" width="1" x="4" y="27"  filter="url(#drop-shadow)" />
<rect fill="rgb(88,155,212)" height="1" opacity="1.0" width="1" x="5" y="27"  filter="url(#drop-shadow)" />
<rect fill="rgb(88,155,212)" height="1" opacity="1.0" width="1" x="6" y="27"  filter="url(#drop-shadow)" />
<rect fill="rgb(88,155,212)" height="1" opacity="1.0" width="1" x="7" y="27"  filter="url(#drop-shadow)" />
<rect fill="rgb(88,155,212)" height="1" opacity="1.0" width="1" x="8" y="27"  filter="url(#drop-shadow)" />
<rect fill="rgb(88,155,212)" height="1" opacity="1.0" width="1" x="9" y="27"  filter="url(#drop-shadow)" />
<rect fill="rgb(88,155,212)" height="1" opacity="1.0" width="1" x="10" y="27"  filter="url(#drop-shadow)" />
<rect fill="rgb(88,155,212)" height="1" opacity="1.0" width="1" x="11" y="27"  filter="url(#drop-shadow)" />
<rect fill="rgb(88,155,212)" height="1" opacity="1.0" width="1" x="12" y="27"  filter="url(#drop-shadow)" />
<rect fill="rgb(88,155,212)" height="1" opacity="1.0" width="1" x="13" y="27"  filter="url(#drop-shadow)" />
<rect fill="rgb(88,154,212)" height="1" opacity="1.0" width="1" x="14" y="27"  filter="url(#drop-shadow)" />
<rect fill="rgb(88,154,212)" height="1" opacity="1.0" width="1" x="15" y="27"  filter="url(#drop-shadow)" />
<rect fill="rgb(88,154,212)" height="1" opacity="1.0" width="1" x="16" y="27"  filter="url(#drop-shadow)" />
<rect fill="rgb(88,154,212)" height="1" opacity="1.0" width="1" x="17" y="27"  filter="url(#drop-shadow)" />
<rect fill="rgb(88,155,212)" height="1" opacity="1.0" width="1" x="18" y="27"  filter="url(#drop-shadow)" />
<rect fill="rgb(88,155,212)" height="1" opacity="1.0" width="1" x="19" y="27"  filter="url(#drop-shadow)" />
<rect fill="rgb(88,155,212)" height="1" opacity="1.0" width="1" x="20" y="27"  filter="url(#drop-shadow)" />
<rect fill="rgb(88,155,212)" height="1" opacity="1.0" width="1" x="21" y="27"  filter="url(#drop-shadow)" />
<rect fill="rgb(88,155,212)" height="1" opacity="1.0" width="1" x="22" y="27"  filter="url(#drop-shadow)" />
<rect fill="rgb(88,155,212)" height="1" opacity="1.0" width="1" x="23" y="27"  filter="url(#drop-shadow)" />
<rect fill="rgb(88,155,212)" height="1" opacity="1.0" width="1" x="24" y="27"  filter="url(#drop-shadow)" />
<rect fill="rgb(88,155,212)" height="1" opacity="1.0" width="1" x="25" y="27"  filter="url(#drop-shadow)" />
<rect fill="rgb(88,155,212)" height="1" opacity="1.0" width="1" x="26" y="27"  filter="url(#drop-shadow)" />
<rect fill="rgb(88,155,212)" height="1" opacity="1.0" width="1" x="27" y="27"  filter="url(#drop-shadow)" />
<rect fill="rgb(0,255,255)" height="1" opacity="0.00392156862745098" width="1" x="28" y="27"  filter="url(#drop-shadow)" />
<rect fill="rgb(88,154,211)" height="1" opacity="0.996078431372549" width="1" x="4" y="28"  filter="url(#drop-shadow)" />
<rect fill="rgb(88,155,212)" height="1" opacity="1.0" width="1" x="5" y="28"  filter="url(#drop-shadow)" />
<rect fill="rgb(88,155,212)" height="1" opacity="1.0" width="1" x="6" y="28"  filter="url(#drop-shadow)" />
<rect fill="rgb(88,155,212)" height="1" opacity="1.0" width="1" x="7" y="28"  filter="url(#drop-shadow)" />
<rect fill="rgb(88,155,212)" height="1" opacity="1.0" width="1" x="8" y="28"  filter="url(#drop-shadow)" />
<rect fill="rgb(88,155,212)" height="1" opacity="1.0" width="1" x="9" y="28"  filter="url(#drop-shadow)" />
<rect fill="rgb(88,155,212)" height="1" opacity="1.0" width="1" x="10" y="28"  filter="url(#drop-shadow)" />
<rect fill="rgb(88,155,212)" height="1" opacity="1.0" width="1" x="11" y="28"  filter="url(#drop-shadow)" />
<rect fill="rgb(88,155,212)" height="1" opacity="1.0" width="1" x="12" y="28"  filter="url(#drop-shadow)" />
<rect fill="rgb(88,155,212)" height="1" opacity="1.0" width="1" x="13" y="28"  filter="url(#drop-shadow)" />
<rect fill="rgb(88,155,212)" height="1" opacity="1.0" width="1" x="14" y="28"  filter="url(#drop-shadow)" />
<rect fill="rgb(88,155,212)" height="1" opacity="1.0" width="1" x="15" y="28"  filter="url(#drop-shadow)" />
<rect fill="rgb(88,155,212)" height="1" opacity="1.0" width="1" x="16" y="28"  filter="url(#drop-shadow)" />
<rect fill="rgb(88,155,212)" height="1" opacity="1.0" width="1" x="17" y="28"  filter="url(#drop-shadow)" />
<rect fill="rgb(88,155,212)" height="1" opacity="1.0" width="1" x="18" y="28"  filter="url(#drop-shadow)" />
<rect fill="rgb(88,155,212)" height="1" opacity="1.0" width="1" x="19" y="28"  filter="url(#drop-shadow)" />
<rect fill="rgb(88,155,212)" height="1" opacity="1.0" width="1" x="20" y="28"  filter="url(#drop-shadow)" />
<rect fill="rgb(88,155,212)" height="1" opacity="1.0" width="1" x="21" y="28"  filter="url(#drop-shadow)" />
<rect fill="rgb(88,155,212)" height="1" opacity="1.0" width="1" x="22" y="28"  filter="url(#drop-shadow)" />
<rect fill="rgb(88,155,212)" height="1" opacity="1.0" width="1" x="23" y="28"  filter="url(#drop-shadow)" />
<rect fill="rgb(88,155,212)" height="1" opacity="1.0" width="1" x="24" y="28"  filter="url(#drop-shadow)" />
<rect fill="rgb(88,155,212)" height="1" opacity="1.0" width="1" x="25" y="28"  filter="url(#drop-shadow)" />
<rect fill="rgb(88,155,212)" height="1" opacity="1.0" width="1" x="26" y="28"  filter="url(#drop-shadow)" />
<rect fill="rgb(88,155,212)" height="1" opacity="1.0" width="1" x="27" y="28"  filter="url(#drop-shadow)" />
<rect fill="rgb(0,255,255)" height="1" opacity="0.00392156862745098" width="1" x="28" y="28"  filter="url(#drop-shadow)" />
</svg>